<?xml version="1.0" encoding="UTF-8" standalone="no"?>
<!DOCTYPE svg PUBLIC "-//W3C//DTD SVG 1.1//EN"
 "http://www.w3.org/Graphics/SVG/1.1/DTD/svg11.dtd">
<!-- Generated by graphviz version 2.47.3 (20210619.1520)
 -->
<!-- Title: dependencies Pages: 1 -->
<svg width="1188pt" height="247pt"
 viewBox="0.00 0.00 1188.00 246.80" xmlns="http://www.w3.org/2000/svg" xmlns:xlink="http://www.w3.org/1999/xlink">
<g id="graph0" class="graph" transform="scale(1 1) rotate(0) translate(4 242.8)">
<title>dependencies</title>
<polygon fill="white" stroke="transparent" points="-4,4 -4,-242.8 1184,-242.8 1184,4 -4,4"/>
<text text-anchor="middle" x="590" y="-8.2" font-family="sans-serif" font-size="14.00">dependencies</text>
<g id="clust1" class="cluster">
<title>cluster_AppModule</title>
<polygon fill="none" stroke="black" stroke-dasharray="1,5" points="8,-32.8 8,-230.8 1172,-230.8 1172,-32.8 8,-32.8"/>
</g>
<g id="clust2" class="cluster">
<title>cluster_AppModule_declarations</title>
<polygon fill="none" stroke="black" points="576,-40.8 576,-92.8 1164,-92.8 1164,-40.8 576,-40.8"/>
</g>
<g id="clust7" class="cluster">
<title>cluster_AppModule_imports</title>
<polygon fill="none" stroke="black" points="424,-40.8 424,-92.8 568,-92.8 568,-40.8 424,-40.8"/>
</g>
<g id="clust9" class="cluster">
<title>cluster_AppModule_bootstrap</title>
<polygon fill="none" stroke="black" points="503,-170.8 503,-222.8 627,-222.8 627,-170.8 503,-170.8"/>
</g>
<g id="clust10" class="cluster">
<title>cluster_AppModule_providers</title>
<polygon fill="none" stroke="black" points="16,-40.8 16,-92.8 416,-92.8 416,-40.8 16,-40.8"/>
</g>
<!-- AppComponent -->
<g id="node1" class="node">
<title>AppComponent</title>
<polygon fill="#ffffb3" stroke="black" points="1155.94,-84.8 1050.06,-84.8 1050.06,-48.8 1155.94,-48.8 1155.94,-84.8"/>
<text text-anchor="middle" x="1103" y="-62.6" font-family="Times,serif" font-size="14.00">AppComponent</text>
</g>
<!-- AppModule -->
<g id="node5" class="node">
<title>AppModule</title>
<polygon fill="#8dd3c7" stroke="black" points="606.66,-149.8 603.66,-153.8 582.66,-153.8 579.66,-149.8 523.34,-149.8 523.34,-113.8 606.66,-113.8 606.66,-149.8"/>
<text text-anchor="middle" x="565" y="-127.6" font-family="Times,serif" font-size="14.00">AppModule</text>
</g>
<!-- AppComponent&#45;&gt;AppModule -->
<g id="edge1" class="edge">
<title>AppComponent&#45;&gt;AppModule</title>
<path fill="none" stroke="black" d="M1103,-85.09C1103,-107.01 1103,-140.8 1103,-140.8 1103,-140.8 616.77,-140.8 616.77,-140.8"/>
<polygon fill="black" stroke="black" points="616.77,-137.3 606.77,-140.8 616.77,-144.3 616.77,-137.3"/>
</g>
<!-- ComponentTestingComponent -->
<g id="node2" class="node">
<title>ComponentTestingComponent</title>
<polygon fill="#ffffb3" stroke="black" points="1032.16,-84.8 843.84,-84.8 843.84,-48.8 1032.16,-48.8 1032.16,-84.8"/>
<text text-anchor="middle" x="938" y="-62.6" font-family="Times,serif" font-size="14.00">ComponentTestingComponent</text>
</g>
<!-- ComponentTestingComponent&#45;&gt;AppModule -->
<g id="edge2" class="edge">
<title>ComponentTestingComponent&#45;&gt;AppModule</title>
<path fill="none" stroke="black" d="M938,-84.91C938,-104.14 938,-131.8 938,-131.8 938,-131.8 616.7,-131.8 616.7,-131.8"/>
<polygon fill="black" stroke="black" points="616.7,-128.3 606.7,-131.8 616.7,-135.3 616.7,-128.3"/>
</g>
<!-- PaskhaComponent -->
<g id="node3" class="node">
<title>PaskhaComponent</title>
<polygon fill="#ffffb3" stroke="black" points="825.49,-84.8 704.51,-84.8 704.51,-48.8 825.49,-48.8 825.49,-84.8"/>
<text text-anchor="middle" x="765" y="-62.6" font-family="Times,serif" font-size="14.00">PaskhaComponent</text>
</g>
<!-- PaskhaComponent&#45;&gt;AppModule -->
<g id="edge3" class="edge">
<title>PaskhaComponent&#45;&gt;AppModule</title>
<path fill="none" stroke="black" d="M765,-84.83C765,-101.2 765,-122.8 765,-122.8 765,-122.8 616.93,-122.8 616.93,-122.8"/>
<polygon fill="black" stroke="black" points="616.93,-119.3 606.93,-122.8 616.93,-126.3 616.93,-119.3"/>
</g>
<!-- SedComponent -->
<g id="node4" class="node">
<title>SedComponent</title>
<polygon fill="#ffffb3" stroke="black" points="686.33,-84.8 583.67,-84.8 583.67,-48.8 686.33,-48.8 686.33,-84.8"/>
<text text-anchor="middle" x="635" y="-62.6" font-family="Times,serif" font-size="14.00">SedComponent</text>
</g>
<!-- SedComponent&#45;&gt;AppModule -->
<g id="edge4" class="edge">
<title>SedComponent&#45;&gt;AppModule</title>
<path fill="none" stroke="black" d="M595.33,-84.91C595.33,-84.91 595.33,-103.79 595.33,-103.79"/>
<polygon fill="black" stroke="black" points="591.83,-103.79 595.33,-113.79 598.83,-103.79 591.83,-103.79"/>
</g>
<!-- AppComponent  -->
<g id="node7" class="node">
<title>AppComponent </title>
<polygon fill="#80b1d3" stroke="black" points="619.44,-214.8 510.56,-214.8 510.56,-178.8 619.44,-178.8 619.44,-214.8"/>
<text text-anchor="middle" x="565" y="-192.6" font-family="Times,serif" font-size="14.00">AppComponent </text>
</g>
<!-- AppModule&#45;&gt;AppComponent  -->
<g id="edge6" class="edge">
<title>AppModule&#45;&gt;AppComponent </title>
<path fill="none" stroke="black" stroke-dasharray="1,5" d="M565,-149.91C565,-149.91 565,-168.79 565,-168.79"/>
<polygon fill="black" stroke="black" points="561.5,-168.79 565,-178.79 568.5,-168.79 561.5,-168.79"/>
</g>
<!-- AppRoutingModule -->
<g id="node6" class="node">
<title>AppRoutingModule</title>
<polygon fill="#8dd3c7" stroke="black" points="560.27,-84.8 557.27,-88.8 536.27,-88.8 533.27,-84.8 431.73,-84.8 431.73,-48.8 560.27,-48.8 560.27,-84.8"/>
<text text-anchor="middle" x="496" y="-62.6" font-family="Times,serif" font-size="14.00">AppRoutingModule</text>
</g>
<!-- AppRoutingModule&#45;&gt;AppModule -->
<g id="edge5" class="edge">
<title>AppRoutingModule&#45;&gt;AppModule</title>
<path fill="none" stroke="black" d="M541.78,-84.91C541.78,-84.91 541.78,-103.79 541.78,-103.79"/>
<polygon fill="black" stroke="black" points="538.28,-103.79 541.78,-113.79 545.28,-103.79 538.28,-103.79"/>
</g>
<!-- DateService -->
<g id="node8" class="node">
<title>DateService</title>
<ellipse fill="#fdb462" stroke="black" cx="350" cy="-66.8" rx="58.44" ry="18"/>
<text text-anchor="middle" x="350" y="-62.6" font-family="Times,serif" font-size="14.00">DateService</text>
</g>
<!-- DateService&#45;&gt;AppModule -->
<g id="edge7" class="edge">
<title>DateService&#45;&gt;AppModule</title>
<path fill="none" stroke="black" d="M350,-84.83C350,-101.2 350,-122.8 350,-122.8 350,-122.8 513.29,-122.8 513.29,-122.8"/>
<polygon fill="black" stroke="black" points="513.29,-126.3 523.29,-122.8 513.29,-119.3 513.29,-126.3"/>
</g>
<!-- LinksService -->
<g id="node9" class="node">
<title>LinksService</title>
<ellipse fill="#fdb462" stroke="black" cx="212" cy="-66.8" rx="61.98" ry="18"/>
<text text-anchor="middle" x="212" y="-62.6" font-family="Times,serif" font-size="14.00">LinksService</text>
</g>
<!-- LinksService&#45;&gt;AppModule -->
<g id="edge8" class="edge">
<title>LinksService&#45;&gt;AppModule</title>
<path fill="none" stroke="black" d="M212,-84.91C212,-104.14 212,-131.8 212,-131.8 212,-131.8 513.12,-131.8 513.12,-131.8"/>
<polygon fill="black" stroke="black" points="513.12,-135.3 523.12,-131.8 513.12,-128.3 513.12,-135.3"/>
</g>
<!-- SedService -->
<g id="node10" class="node">
<title>SedService</title>
<ellipse fill="#fdb462" stroke="black" cx="78" cy="-66.8" rx="54.45" ry="18"/>
<text text-anchor="middle" x="78" y="-62.6" font-family="Times,serif" font-size="14.00">SedService</text>
</g>
<!-- SedService&#45;&gt;AppModule -->
<g id="edge9" class="edge">
<title>SedService&#45;&gt;AppModule</title>
<path fill="none" stroke="black" d="M78,-85.09C78,-107.01 78,-140.8 78,-140.8 78,-140.8 513.06,-140.8 513.06,-140.8"/>
<polygon fill="black" stroke="black" points="513.06,-144.3 523.06,-140.8 513.06,-137.3 513.06,-144.3"/>
</g>
</g>
</svg>
