<?xml version="1.0" encoding="UTF-8" standalone="no"?>
<!DOCTYPE svg PUBLIC "-//W3C//DTD SVG 1.1//EN"
 "http://www.w3.org/Graphics/SVG/1.1/DTD/svg11.dtd">
<!-- Generated by graphviz version 2.47.3 (20210619.1520)
 -->
<!-- Title: dependencies Pages: 1 -->
<svg width="1188pt" height="247pt"
 viewBox="0.00 0.00 1188.00 246.80" xmlns="http://www.w3.org/2000/svg" xmlns:xlink="http://www.w3.org/1999/xlink">
<g id="graph0" class="graph" transform="scale(1 1) rotate(0) translate(4 242.8)">
<title>dependencies</title>
<polygon fill="white" stroke="transparent" points="-4,4 -4,-242.8 1184,-242.8 1184,4 -4,4"/>
<text text-anchor="middle" x="590" y="-8.2" font-family="sans-serif" font-size="14.00">dependencies</text>
<g id="clust1" class="cluster">
<title>cluster_AppModule</title>
<polygon fill="none" stroke="black" stroke-dasharray="1,5" points="8,-32.8 8,-230.8 1172,-230.8 1172,-32.8 8,-32.8"/>
</g>
<g id="clust2" class="cluster">
<title>cluster_AppModule_declarations</title>
<polygon fill="none" stroke="black" points="576,-40.8 576,-92.8 1164,-92.8 1164,-40.8 576,-40.8"/>
</g>
<g id="clust10" class="cluster">
<title>cluster_AppModule_providers</title>
<polygon fill="none" stroke="black" points="168,-40.8 168,-92.8 568,-92.8 568,-40.8 168,-40.8"/>
</g>
<g id="clust7" class="cluster">
<title>cluster_AppModule_imports</title>
<polygon fill="none" stroke="black" points="16,-40.8 16,-92.8 160,-92.8 160,-40.8 16,-40.8"/>
</g>
<g id="clust9" class="cluster">
<title>cluster_AppModule_bootstrap</title>
<polygon fill="none" stroke="black" points="506,-170.8 506,-222.8 630,-222.8 630,-170.8 506,-170.8"/>
</g>
<!-- AppComponent -->
<g id="node1" class="node">
<title>AppComponent</title>
<polygon fill="#ffffb3" stroke="black" points="1155.94,-84.8 1050.06,-84.8 1050.06,-48.8 1155.94,-48.8 1155.94,-84.8"/>
<text text-anchor="middle" x="1103" y="-62.6" font-family="Times,serif" font-size="14.00">AppComponent</text>
</g>
<!-- AppModule -->
<g id="node5" class="node">
<title>AppModule</title>
<polygon fill="#8dd3c7" stroke="black" points="609.66,-149.8 606.66,-153.8 585.66,-153.8 582.66,-149.8 526.34,-149.8 526.34,-113.8 609.66,-113.8 609.66,-149.8"/>
<text text-anchor="middle" x="568" y="-127.6" font-family="Times,serif" font-size="14.00">AppModule</text>
</g>
<!-- AppComponent&#45;&gt;AppModule -->
<g id="edge1" class="edge">
<title>AppComponent&#45;&gt;AppModule</title>
<path fill="none" stroke="black" d="M1103,-85.09C1103,-107.01 1103,-140.8 1103,-140.8 1103,-140.8 619.98,-140.8 619.98,-140.8"/>
<polygon fill="black" stroke="black" points="619.98,-137.3 609.98,-140.8 619.98,-144.3 619.98,-137.3"/>
</g>
<!-- ComponentTestingComponent -->
<g id="node2" class="node">
<title>ComponentTestingComponent</title>
<polygon fill="#ffffb3" stroke="black" points="1032.16,-84.8 843.84,-84.8 843.84,-48.8 1032.16,-48.8 1032.16,-84.8"/>
<text text-anchor="middle" x="938" y="-62.6" font-family="Times,serif" font-size="14.00">ComponentTestingComponent</text>
</g>
<!-- ComponentTestingComponent&#45;&gt;AppModule -->
<g id="edge2" class="edge">
<title>ComponentTestingComponent&#45;&gt;AppModule</title>
<path fill="none" stroke="black" d="M938,-84.91C938,-104.14 938,-131.8 938,-131.8 938,-131.8 619.72,-131.8 619.72,-131.8"/>
<polygon fill="black" stroke="black" points="619.72,-128.3 609.72,-131.8 619.72,-135.3 619.72,-128.3"/>
</g>
<!-- PaskhaComponent -->
<g id="node3" class="node">
<title>PaskhaComponent</title>
<polygon fill="#ffffb3" stroke="black" points="825.49,-84.8 704.51,-84.8 704.51,-48.8 825.49,-48.8 825.49,-84.8"/>
<text text-anchor="middle" x="765" y="-62.6" font-family="Times,serif" font-size="14.00">PaskhaComponent</text>
</g>
<!-- PaskhaComponent&#45;&gt;AppModule -->
<g id="edge3" class="edge">
<title>PaskhaComponent&#45;&gt;AppModule</title>
<path fill="none" stroke="black" d="M765,-84.83C765,-101.2 765,-122.8 765,-122.8 765,-122.8 619.78,-122.8 619.78,-122.8"/>
<polygon fill="black" stroke="black" points="619.78,-119.3 609.78,-122.8 619.78,-126.3 619.78,-119.3"/>
</g>
<!-- SedComponent -->
<g id="node4" class="node">
<title>SedComponent</title>
<polygon fill="#ffffb3" stroke="black" points="686.33,-84.8 583.67,-84.8 583.67,-48.8 686.33,-48.8 686.33,-84.8"/>
<text text-anchor="middle" x="635" y="-62.6" font-family="Times,serif" font-size="14.00">SedComponent</text>
</g>
<!-- SedComponent&#45;&gt;AppModule -->
<g id="edge4" class="edge">
<title>SedComponent&#45;&gt;AppModule</title>
<path fill="none" stroke="black" d="M596.83,-84.91C596.83,-84.91 596.83,-103.79 596.83,-103.79"/>
<polygon fill="black" stroke="black" points="593.33,-103.79 596.83,-113.79 600.33,-103.79 593.33,-103.79"/>
</g>
<!-- AppComponent  -->
<g id="node7" class="node">
<title>AppComponent </title>
<polygon fill="#80b1d3" stroke="black" points="622.44,-214.8 513.56,-214.8 513.56,-178.8 622.44,-178.8 622.44,-214.8"/>
<text text-anchor="middle" x="568" y="-192.6" font-family="Times,serif" font-size="14.00">AppComponent </text>
</g>
<!-- AppModule&#45;&gt;AppComponent  -->
<g id="edge6" class="edge">
<title>AppModule&#45;&gt;AppComponent </title>
<path fill="none" stroke="black" stroke-dasharray="1,5" d="M568,-149.91C568,-149.91 568,-168.79 568,-168.79"/>
<polygon fill="black" stroke="black" points="564.5,-168.79 568,-178.79 571.5,-168.79 564.5,-168.79"/>
</g>
<!-- AppRoutingModule -->
<g id="node6" class="node">
<title>AppRoutingModule</title>
<polygon fill="#8dd3c7" stroke="black" points="152.27,-84.8 149.27,-88.8 128.27,-88.8 125.27,-84.8 23.73,-84.8 23.73,-48.8 152.27,-48.8 152.27,-84.8"/>
<text text-anchor="middle" x="88" y="-62.6" font-family="Times,serif" font-size="14.00">AppRoutingModule</text>
</g>
<!-- AppRoutingModule&#45;&gt;AppModule -->
<g id="edge5" class="edge">
<title>AppRoutingModule&#45;&gt;AppModule</title>
<path fill="none" stroke="black" d="M88,-85.09C88,-107.01 88,-140.8 88,-140.8 88,-140.8 516.24,-140.8 516.24,-140.8"/>
<polygon fill="black" stroke="black" points="516.24,-144.3 526.24,-140.8 516.24,-137.3 516.24,-144.3"/>
</g>
<!-- DateService -->
<g id="node8" class="node">
<title>DateService</title>
<ellipse fill="#fdb462" stroke="black" cx="502" cy="-66.8" rx="58.44" ry="18"/>
<text text-anchor="middle" x="502" y="-62.6" font-family="Times,serif" font-size="14.00">DateService</text>
</g>
<!-- DateService&#45;&gt;AppModule -->
<g id="edge7" class="edge">
<title>DateService&#45;&gt;AppModule</title>
<path fill="none" stroke="black" d="M543.2,-79.64C543.2,-79.64 543.2,-103.32 543.2,-103.32"/>
<polygon fill="black" stroke="black" points="539.7,-103.32 543.2,-113.32 546.7,-103.32 539.7,-103.32"/>
</g>
<!-- LinksService -->
<g id="node9" class="node">
<title>LinksService</title>
<ellipse fill="#fdb462" stroke="black" cx="364" cy="-66.8" rx="61.98" ry="18"/>
<text text-anchor="middle" x="364" y="-62.6" font-family="Times,serif" font-size="14.00">LinksService</text>
</g>
<!-- LinksService&#45;&gt;AppModule -->
<g id="edge8" class="edge">
<title>LinksService&#45;&gt;AppModule</title>
<path fill="none" stroke="black" d="M364,-84.83C364,-101.2 364,-122.8 364,-122.8 364,-122.8 516.23,-122.8 516.23,-122.8"/>
<polygon fill="black" stroke="black" points="516.23,-126.3 526.23,-122.8 516.23,-119.3 516.23,-126.3"/>
</g>
<!-- SedService -->
<g id="node10" class="node">
<title>SedService</title>
<ellipse fill="#fdb462" stroke="black" cx="230" cy="-66.8" rx="54.45" ry="18"/>
<text text-anchor="middle" x="230" y="-62.6" font-family="Times,serif" font-size="14.00">SedService</text>
</g>
<!-- SedService&#45;&gt;AppModule -->
<g id="edge9" class="edge">
<title>SedService&#45;&gt;AppModule</title>
<path fill="none" stroke="black" d="M230,-84.91C230,-104.14 230,-131.8 230,-131.8 230,-131.8 516.22,-131.8 516.22,-131.8"/>
<polygon fill="black" stroke="black" points="516.22,-135.3 526.22,-131.8 516.22,-128.3 516.22,-135.3"/>
</g>
</g>
</svg>
